<?xml version="1.0" encoding="UTF-8"?>
<svg xmlns="http://www.w3.org/2000/svg" xmlns:svg="http://www.w3.org/2000/svg" xmlns:sodipodi="http://sodipodi.sourceforge.net/DTD/sodipodi-0.dtd" xmlns:rdf="http://www.w3.org/1999/02/22-rdf-syntax-ns#" xmlns:inkscape="http://www.inkscape.org/namespaces/inkscape" xmlns:dc="http://purl.org/dc/elements/1.1/" xmlns:cc="http://creativecommons.org/ns#" version="1.1" viewBox="0 0 21.9 21.9">
  <defs>
    <style>
      .cls-1 {
        fill: #fff;
      }
    </style>
  </defs>
  <!-- Generator: Adobe Illustrator 28.7.1, SVG Export Plug-In . SVG Version: 1.2.0 Build 142)  -->
  <g>
    <g id="Capa_1">
      <sodipodi:namedview id="namedview45" bordercolor="#666666" borderopacity="1" gridtolerance="10" guidetolerance="10" inkscape:current-layer="Capa_1" inkscape:cx="10.925132" inkscape:cy="10.927016" inkscape:pageopacity="0" inkscape:pageshadow="2" inkscape:window-height="713" inkscape:window-maximized="1" inkscape:window-width="1366" inkscape:window-x="0" inkscape:window-y="27" inkscape:zoom="10.798938" objecttolerance="10" pagecolor="#ffffff" showgrid="false"/>
      <path class="cls-1" d="M18.8.2H3.1C1.4.2,0,1.5,0,3.2v10.2c0,1.7,1.4,3,3,3h1c.5,0,.8.4.8.8v2.8c0,1.1,1.4,1.7,2.1.9l3.7-3.8c.4-.4.9-.6,1.5-.6h6.6c1.7,0,3-1.4,3-3V3.2c0-1.7-1.4-3-3-3ZM6.4,9.1c-.3.3-.7.4-1.1.4s-.8-.2-1.1-.4c-.3-.3-.4-.7-.4-1.1s.2-.8.4-1.1c0,0,.1-.1.2-.2,0,0,.2-.1.3-.1,0,0,.2,0,.3,0,.5-.1,1,0,1.3.4.3.3.4.7.4,1.1s-.2.8-.4,1.1ZM12,9.1c0,0-.2.1-.2.2,0,0-.2,0-.3.1,0,0-.2,0-.3,0,0,0-.2,0-.3,0-.4,0-.8-.2-1.1-.4-.3-.3-.4-.7-.4-1.1s.2-.8.4-1.1c.3-.4.9-.5,1.3-.4.1,0,.2,0,.3,0,0,0,.2,0,.3.1,0,0,.2.1.2.2.3.3.4.7.4,1.1s-.2.8-.4,1.1ZM18,8.3c0,.1,0,.2,0,.3,0,0,0,.2-.1.3,0,0-.1.2-.2.2,0,0-.1.1-.2.2,0,0-.2,0-.3.1,0,0-.2,0-.3,0,0,0-.2,0-.3,0s-.2,0-.3,0c-.1,0-.2,0-.3,0,0,0-.2,0-.3-.1,0,0-.2-.1-.2-.2,0,0-.1-.1-.2-.2,0,0,0-.2-.1-.3,0,0,0-.2,0-.3,0,0,0-.2,0-.3s0-.2,0-.3c0-.1,0-.2,0-.3,0,0,0-.2.1-.3,0,0,.1-.2.2-.2,0,0,.2-.1.2-.2,0,0,.2-.1.3-.1,0,0,.2,0,.3,0,.2,0,.4,0,.6,0,.1,0,.2,0,.3,0,0,0,.2,0,.3.1,0,0,.2.1.2.2,0,0,.1.1.2.2,0,0,.1.2.1.3,0,0,0,.2,0,.3,0,0,0,.2,0,.3s0,.2,0,.3Z"/>
    </g>
  </g>
</svg>