<?xml version="1.0" encoding="UTF-8"?>
<svg xmlns="http://www.w3.org/2000/svg" xmlns:svg="http://www.w3.org/2000/svg" xmlns:sodipodi="http://sodipodi.sourceforge.net/DTD/sodipodi-0.dtd" xmlns:rdf="http://www.w3.org/1999/02/22-rdf-syntax-ns#" xmlns:inkscape="http://www.inkscape.org/namespaces/inkscape" xmlns:dc="http://purl.org/dc/elements/1.1/" xmlns:cc="http://creativecommons.org/ns#" version="1.1" viewBox="0 0 21.9 21.9">
  <defs>
    <style>
      .cls-1 {
        fill: #fff;
      }
    </style>
  </defs>
  <!-- Generator: Adobe Illustrator 28.7.1, SVG Export Plug-In . SVG Version: 1.2.0 Build 142)  -->
  <g>
    <g id="Capa_1">
      <g>
        <path class="cls-1" d="M17.9,3.2h-.9v-.5c0-.6-.5-1-1-1s-1,.5-1,1v.5h-2.9v-.5c0-.6-.5-1-1-1s-1,.5-1,1v.5h-2.9v-.5c0-.6-.5-1-1-1s-1,.5-1,1v.5h-.9c-1.6,0-2.9,1.3-2.9,2.9v1.3h19.5v-1.3c0-1.6-1.3-2.9-2.9-2.9Z"/>
        <path class="cls-1" d="M1.3,8.4v9.6c0,1.6,1.3,2.9,2.9,2.9h13.7c1.6,0,2.9-1.3,2.9-2.9v-9.6H1.3ZM7.1,16.5c0,0-.2.2-.3.2-.1,0-.2,0-.4,0-.3,0-.5-.1-.7-.3-.2-.2-.3-.5-.3-.7s0-.3,0-.4c0-.1.1-.2.2-.3.4-.4,1.1-.4,1.5,0,0,.1.2.2.2.3,0,.1,0,.2,0,.4,0,.3-.1.5-.3.7ZM7.1,12.5c0,0-.2.2-.3.2-.1,0-.2,0-.4,0s-.3,0-.4,0c-.1,0-.2-.1-.3-.2-.2-.2-.3-.5-.3-.7s0-.3,0-.4c0-.1.1-.2.2-.3.4-.4,1.1-.4,1.5,0,0,0,.2.2.2.3,0,.1,0,.3,0,.4,0,.3-.1.5-.3.7ZM12,16.2c0,.1-.1.2-.2.3-.2.2-.5.3-.7.3s-.3,0-.4,0c-.1,0-.2-.1-.3-.2,0-.1-.2-.2-.2-.3,0-.1,0-.3,0-.4,0-.3.1-.5.3-.7.3-.3.7-.4,1.1-.2.1,0,.2.1.3.2.2.2.3.5.3.7s0,.3,0,.4ZM11.8,12.5c-.2.2-.5.3-.7.3s-.3,0-.4,0c-.1,0-.2-.1-.3-.2-.2-.2-.3-.5-.3-.7s0-.3,0-.4c0-.1.1-.2.2-.3.3-.3.7-.4,1.1-.2,0,0,.1,0,.2.1,0,0,.1,0,.2.1,0,0,.2.2.2.3s0,.3,0,.4c0,.3-.1.5-.3.7ZM16.6,16.2c0,.1-.1.2-.2.3-.2.2-.5.3-.7.3s-.5-.1-.7-.3c-.1-.1-.2-.2-.2-.3,0-.1,0-.3,0-.4s0-.1,0-.2c0,0,0-.1,0-.2,0-.1.1-.2.2-.3,0,0,0,0,.1-.1,0,0,.1,0,.2,0,0,0,.1,0,.2,0,.3,0,.7,0,.9.3,0,.1.2.2.2.3,0,0,0,.1,0,.2,0,0,0,.1,0,.2,0,.1,0,.3,0,.4ZM16.4,12.5c-.2.2-.5.3-.7.3s-.5-.1-.7-.3c-.2-.2-.3-.5-.3-.7s0-.3,0-.4c0-.1.1-.2.2-.3.4-.4,1.1-.4,1.5,0,0,0,.2.2.2.3s0,.3,0,.4c0,.3-.1.5-.3.7Z"/>
      </g>
      <sodipodi:namedview id="namedview45" bordercolor="#666666" borderopacity="1" gridtolerance="10" guidetolerance="10" inkscape:current-layer="Capa_1" inkscape:cx="10.925132" inkscape:cy="10.927016" inkscape:pageopacity="0" inkscape:pageshadow="2" inkscape:window-height="713" inkscape:window-maximized="1" inkscape:window-width="1366" inkscape:window-x="0" inkscape:window-y="27" inkscape:zoom="10.798938" objecttolerance="10" pagecolor="#ffffff" showgrid="false"/>
    </g>
  </g>
</svg>