<?xml version="1.0" encoding="UTF-8"?>
<svg xmlns="http://www.w3.org/2000/svg" xmlns:svg="http://www.w3.org/2000/svg" xmlns:sodipodi="http://sodipodi.sourceforge.net/DTD/sodipodi-0.dtd" xmlns:rdf="http://www.w3.org/1999/02/22-rdf-syntax-ns#" xmlns:inkscape="http://www.inkscape.org/namespaces/inkscape" xmlns:dc="http://purl.org/dc/elements/1.1/" xmlns:cc="http://creativecommons.org/ns#" version="1.1" viewBox="0 0 21.9 21.9">
  <defs>
    <style>
      .cls-1 {
        fill: #fff;
      }
    </style>
  </defs>
  <!-- Generator: Adobe Illustrator 28.7.1, SVG Export Plug-In . SVG Version: 1.2.0 Build 142)  -->
  <g>
    <g id="Capa_1">
      <sodipodi:namedview id="namedview45" bordercolor="#666666" borderopacity="1" gridtolerance="10" guidetolerance="10" inkscape:current-layer="Capa_1" inkscape:cx="10.925132" inkscape:cy="10.927016" inkscape:pageopacity="0" inkscape:pageshadow="2" inkscape:window-height="713" inkscape:window-maximized="1" inkscape:window-width="1366" inkscape:window-x="0" inkscape:window-y="27" inkscape:zoom="10.798938" objecttolerance="10" pagecolor="#ffffff" showgrid="false"/>
      <g id="g6">
        <g id="g4">
          <path id="path2" class="cls-1" d="M12.8.9c-1-1-2.6-1-3.5,0L.7,9.4C0,10.2.2,10.7,1.2,10.7h.7v9.6c0,.7.6,1.3,1.3,1.3h4.5c.4,0,.7-.3.7-.7v-3.2c0-.7.6-1.3,1.3-1.3h2.7c.7,0,1.3.6,1.3,1.3v3.2c0,.4.3.7.7.7h4.5c.7,0,1.3-.6,1.3-1.3v-9.6h.7c1,0,1.2-.6.5-1.3L12.8.9Z" inkscape:connector-curvature="0"/>
        </g>
      </g>
    </g>
  </g>
</svg>