<?xml version="1.0" encoding="UTF-8"?>
<svg xmlns="http://www.w3.org/2000/svg" xmlns:svg="http://www.w3.org/2000/svg" xmlns:sodipodi="http://sodipodi.sourceforge.net/DTD/sodipodi-0.dtd" xmlns:rdf="http://www.w3.org/1999/02/22-rdf-syntax-ns#" xmlns:inkscape="http://www.inkscape.org/namespaces/inkscape" xmlns:dc="http://purl.org/dc/elements/1.1/" xmlns:cc="http://creativecommons.org/ns#" version="1.1" viewBox="0 0 21.9 21.9">
  <defs>
    <style>
      .cls-1 {
        fill: #fff;
      }
    </style>
  </defs>
  <!-- Generator: Adobe Illustrator 28.7.1, SVG Export Plug-In . SVG Version: 1.2.0 Build 142)  -->
  <g>
    <g id="Capa_1">
      <sodipodi:namedview id="namedview45" bordercolor="#666666" borderopacity="1" gridtolerance="10" guidetolerance="10" inkscape:current-layer="Capa_1" inkscape:cx="10.925132" inkscape:cy="10.927016" inkscape:pageopacity="0" inkscape:pageshadow="2" inkscape:window-height="713" inkscape:window-maximized="1" inkscape:window-width="1366" inkscape:window-x="0" inkscape:window-y="27" inkscape:zoom="10.798938" objecttolerance="10" pagecolor="#ffffff" showgrid="false"/>
      <g>
        <path class="cls-1" d="M21.3,10.7C21.3,5.1,16.8.6,11.2.6S1.1,5.1,1.1,10.7s.4,3.2,1.1,4.6l1.2,4c.4,1.2,1.9,1.9,3.4,1.4s2.4-1.8,2-3.1l-1.3-4.2c-.4-1.2-1.9-1.9-3.4-1.4h0c-.3,0-.5.2-.7.3-.1-.5-.2-1.1-.2-1.7,0-4.4,3.6-7.9,7.9-7.9s7.9,3.6,7.9,7.9,0,1.1-.2,1.6c-.2-.1-.4-.2-.6-.3-1.5-.5-3,.2-3.4,1.4l-1.3,4.2c-.4,1.2.5,2.6,2,3.1s3-.2,3.4-1.4l1.3-4.2c0,0,0-.1,0-.2.6-1.3.9-2.7.9-4.2Z"/>
        <path class="cls-1" d="M7.9,11.3c-.4,0-.8-.4-.8-.8v-1.5c0-.4.4-.8.8-.8s.8.4.8.8v1.5c0,.4-.4.8-.8.8Z"/>
        <path class="cls-1" d="M10.1,12.9c-.4,0-.8-.4-.8-.8v-4.7c0-.4.4-.8.8-.8s.8.4.8.8v4.7c0,.4-.4.8-.8.8Z"/>
        <path class="cls-1" d="M14.7,11.3c-.4,0-.8-.4-.8-.8v-1.5c0-.4.4-.8.8-.8s.8.4.8.8v1.5c0,.4-.4.8-.8.8Z"/>
        <path class="cls-1" d="M12.4,12.9c-.4,0-.8-.4-.8-.8v-4.7c0-.4.4-.8.8-.8s.8.4.8.8v4.7c0,.4-.4.8-.8.8Z"/>
      </g>
    </g>
  </g>
</svg>